<!DOCTYPE svg PUBLIC "-//W3C//DTD SVG 1.1//EN" "http://www.w3.org/Graphics/SVG/1.1/DTD/svg11.dtd">
<!-- Uploaded to: SVG Repo, www.svgrepo.com, Transformed by: SVG Repo Mixer Tools -->
<svg version="1.1" id="Layer_1" xmlns="http://www.w3.org/2000/svg" xmlns:xlink="http://www.w3.org/1999/xlink" viewBox="0 0 512 512" xml:space="preserve" width="800px" height="800px" fill="#000000">
<g id="SVGRepo_bgCarrier" stroke-width="0"/>
<g id="SVGRepo_tracerCarrier" stroke-linecap="round" stroke-linejoin="round"/>
<g id="SVGRepo_iconCarrier"> <g> <path style="fill:#B3EEFF;" d="M473.68,396.8V102.4c0-7.04-5.76-12.8-12.8-12.8H51.36c-7.04,0-12.8,5.76-12.8,12.8v294.4 C38.56,396.8,474.72,396.8,473.68,396.8z"/> <rect x="57.76" y="106.64" style="fill:#B3EEFF;" width="396.72" height="290.16"/> </g> <rect y="396.8" style="fill:#1E1F3F;" width="512" height="8.56"/> <polygon style="fill:#C9C9C9;" points="486.4,422.4 25.6,422.4 0,405.36 512,405.36 "/> <g> <circle style="fill:#FFFFFF;" cx="255.84" cy="200.64" r="36.48"/> <path style="fill:#FFFFFF;" d="M254.16,321.84l-35.2-76.4c0,0-36.96,0.48-36.96,34.48s0,41.92,0,41.92S254.4,321.84,254.16,321.84z "/> <path style="fill:#FFFFFF;" d="M257.6,321.84l35.2-76.4c0,0,36.96,0.48,36.96,34.48s0,41.92,0,41.92S257.36,321.84,257.6,321.84z"/> </g> <polygon style="fill:#1E1F3F;" points="255.84,245.44 230.48,245.44 255.84,301.6 281.28,245.44 "/> </g>
</svg>